# xmcd
#
# Track frame offsets: 
#        150
#        15717
#        34930
#        42003
#
# Disc length: 645 seconds
#
# Revision: 2
# Processed by: cddbd v1.5PL3 Copyright (c) Steve Scherf et al.
# Submitted via: ExactAudioCopy v0.95a4
#
DISCID=27028304
DTITLE=Spiderbait - Black Betty
DYEAR=2004
DGENRE=Rock
TTITLE0=Black Betty (Edit)
TTITLE1=Black Betty (Extended Version)
TTITLE2=The Dog
TTITLE3=In This City
EXTD=YEAR: 2004
EXTT0=
EXTT1=
EXTT2=
EXTT3=
PLAYORDER=
